<svg width="18" height="23" viewBox="0 0 18 23" fill="none" xmlns="http://www.w3.org/2000/svg">
<path d="M0 22.875C0 18.0885 3.8802 14.2083 8.66667 14.2083C13.4532 14.2083 17.3333 18.0885 17.3333 22.875H15.1667C15.1667 19.2852 12.2565 16.375 8.66667 16.375C5.07681 16.375 2.16667 19.2852 2.16667 22.875H0ZM8.66667 13.125C5.07542 13.125 2.16667 10.2163 2.16667 6.625C2.16667 3.03375 5.07542 0.125 8.66667 0.125C12.2579 0.125 15.1667 3.03375 15.1667 6.625C15.1667 10.2163 12.2579 13.125 8.66667 13.125ZM8.66667 10.9583C11.0608 10.9583 13 9.01917 13 6.625C13 4.23083 11.0608 2.29167 8.66667 2.29167C6.2725 2.29167 4.33333 4.23083 4.33333 6.625C4.33333 9.01917 6.2725 10.9583 8.66667 10.9583Z" fill="#405A94"/>
</svg>
